<?xml version="1.0" standalone="no"?>
<!DOCTYPE svg PUBLIC "-//W3C//DTD SVG 1.1//EN" "http://www.w3.org/Graphics/SVG/1.1/DTD/svg11.dtd" >
<svg xmlns="http://www.w3.org/2000/svg">
<metadata>Generated by IcoMoon</metadata>
<defs>
<font id="icomoon" horiz-adv-x="2048">
<font-face units-per-em="2048" ascent="1740.8" descent="-307.2" />
<missing-glyph horiz-adv-x="2048" />
<glyph unicode="&#x20;" horiz-adv-x="1024" d="" />
<glyph unicode="&#x57;" glyph-name="uni57" horiz-adv-x="6570" d="M893.226 168.443h162.176l369.408 1061.802h-266.112l-171.818-612.95-178.602 612.95h-181.462l-188.416-612.95-171.648 612.95h-266.752l368.086-1061.802h160.896l180.818 642.898 183.424-642.898zM3110.358 1242.491c-55.978 0-106.026-7.894-150.442-30.080-44.246-22.23-85.12-56.96-122.282-104.576v122.454h-231.978v-1061.802h247.126v541.696c0 110.678 18.986 187.264 57.088 229.76 37.802 42.666 104.746 67.754 200.448 75.478l157.22 5.070v221.998h-157.184zM3390.464 1230.287v-1061.802h238.122v454.656c0 141.568 18.006 241.494 54.058 299.734 36.054 58.24 95.274 87.338 177.622 87.338 80.938 0 137.728-26.070 170.070-78.166 32.512-52.138 48.726-149.93 48.726-293.462v-470.102h245.846v454.656c0 141.568 17.366 241.494 52.438 299.734s93.312 87.338 174.89 87.338c78.336 0 133.376-25.898 165.206-77.738 31.872-51.798 47.616-149.76 47.616-293.93v-470.102h243.242v609.11c0 152.704-34.774 269.952-103.936 351.872-69.504 81.878-169.088 122.752-298.922 122.752-63.062 0-120.662-15.446-172.63-46.506-52.142-30.89-98.948-78.166-140.758-141.44-43.776 64.554-96.256 112-157.056 142.422-60.8 30.378-134.016 45.482-219.438 45.482-60.16 0-113.234-11.69-160.082-34.858-46.51-23.382-87.982-59.222-124.032-107.648v120.658h-240.982zM5866.838 198.395l-148.65-373.59h254.848l573.994 1405.482h-259.030l-284.928-741.376-258.858 741.376h-261.59l384.214-1031.89zM1653.078 1169.147c-44.886-29.142-87.040-62.25-122.112-102.656-2.56-3.072-4.822-5.974-7.254-8.832-3.030-3.542-4.992-7.894-7.894-11.434 18.006-42.624 40.192-81.878 79.146-113.28 27.69-22.016 56.96-32.982 87.68-40.362 14.464 20.138 31.36 38.144 50.006 54.698-22.358 22.528-41.814 47.446-56.49 80.47-21.334 48.42-25.514 93.778-23.082 141.394zM1450.542 945.531c-7.082-14.806-14.336-29.44-20.266-45.056-9.174-23.338-16.554-47.446-22.358-72.234-1.11-4.822-1.75-9.642-2.73-14.464 30.89-32.47 64.982-60.032 111.19-75.136 37.504-12.246 72.234-11.734 107.306-6.272 3.542 36.182 11.904 71.126 26.368 102.954-33.152 9.814-63.702 24.618-93.952 48.768-37.802 30.422-61.44 64.982-80.598 103.594-2.73-4.31-6.442-8.362-9.174-12.886-5.29-9.642-10.752-19.158-15.744-29.27zM1569.92 290.725c47.958-45.226 102.954-82.858 164.438-109.056 67.584-28.502 141.568-44.416 219.136-44.416 35.712 0 70.314 4.522 104.234 10.966 5.162 0.982 10.282 2.090 15.616 3.37 67.072 14.634 129.494 41.344 185.344 77.866 4.352 2.902 8.832 5.93 13.354 9.002 37.632 26.24 69.504 58.88 99.114 93.482 0 0 17.066 19.626 7.722 32.17-9.344 12.246-30.72 1.622-30.72 1.622-73.514-35.37-154.922-57.43-241.494-57.43-121.002 0-231.68 40.192-323.2 105.558-23.68-33.962-50.986-64.214-91.222-87.040-40.874-22.998-80.598-32.512-122.282-36.054zM2127.566 357.537c287.658 31.062 370.346 162.646 382.89 279.766-28.97 21.888-60.16 39.594-99.114 47.958-46.336 10.282-86.87 1.92-128.726-10.966-0.298-3.242-0.64-6.272-0.938-9.472-5.462-43.136-27.35-60.502-48.256-52.266-38.912 15.446-110.678 67.712-195.968 14.806-11.264-6.912-19.968-13.354-27.69-18.518-3.542-2.73-55.040-45.696-55.040-89.77 0-40.576 29.782-82.858 56.15-113.92 13.014-11.094 25.258-22.698 38.784-32 27.050-18.986 77.866-15.616 77.866-15.616zM2075.726 595.323v0zM2090.23 569.125c0-15.786-12.886-28.63-28.63-28.63s-28.458 12.886-28.458 28.63c0 15.914 12.714 28.63 28.458 28.63 15.786 0 28.63-12.714 28.63-28.63zM2090.23 447.013c0-15.958-12.886-28.63-28.63-28.63s-28.458 12.714-28.458 28.63c0 15.744 12.714 28.63 28.458 28.63 15.786 0 28.63-12.886 28.63-28.63zM2460.918 936.399c-28.63 61.61-68.522 116.95-116.48 164.096-36.054-16.896-68.522-38.442-95.574-72.234-27.69-34.432-38.614-71.936-45.526-112.128 12.886-14.806 24.278-30.55 34.432-47.616 36.522 30.25 73.984 55.85 124.842 66.304 35.242 7.040 67.072 6.102 98.304 1.622zM2098.262 1239.803c-41.856 11.392-84.992 18.77-130.006 20.096-25.43-38.784-45.398-79.15-49.578-129.366-2.902-36.864 4.822-68.864 16.896-99.712 5.802 0.128 11.434 1.578 17.194 1.578 23.466 0 46.336-2.56 68.522-7.21-2.73 41.216 0.64 80.938 17.878 123.734 14.806 36.864 34.902 65.322 59.050 90.922zM1440.21 473.253c19.626-44.544 45.056-85.59 75.136-123.392 50.346-0.342 98.774 4.822 146.090 31.53 32.512 18.518 54.698 42.794 73.856 70.656-1.92 1.92-4.182 3.37-6.102 5.162-12.374 11.434-24.448 22.826-35.072 35.882-1.28 1.622-2.56 3.072-3.542 4.522-7.254 8.832-10.454 20.266-16.554 29.782-35.2-26.070-71.894-47.616-119.85-56.448-41.174-7.424-77.866-5.462-113.92 2.39zM1644.242 581.455c-10.922 27.648-15.914 57.728-18.816 88.448-42.326-5.93-83.158-5.462-128.554 9.344-41.344 13.482-73.386 33.92-102.486 59.35-0.64-6.272-1.962-12.202-2.262-18.646-0.17-6.912-0.47-13.354-0.47-20.438 0-53.888 8.362-106.026 22.528-155.562 41.174-12.714 82.688-19.798 128.726-11.434 40.534 7.382 71.766 25.898 101.334 48.938zM1894.23 1254.735c-62.592-6.738-122.926-20.608-177.28-46.336-5.806-52.608-6.446-103.594 16.426-155.264 12.544-28.288 30.55-49.238 50.688-68.224 27.35 16.086 56.96 28.63 88.662 36.522-12.374 35.712-19.456 71.936-16.086 114.218 3.712 45.866 18.006 83.37 37.632 119.040zM2292.736 1143.077c-39.424 30.25-81.408 57.43-127.914 76.586-28.33-25.898-52.138-55.168-67.584-93.952-16.554-41.686-16.256-80.938-11.264-121.642 22.698-9.984 43.606-22.998 63.402-37.632 9.642 35.712 24.448 68.694 50.518 101.034 27.69 34.432 58.41 57.302 92.842 75.606zM2513.622 706.767v1.45c0.17 3.030 0.342 6.272-0.17 9.472-0.47 3.882-0.47 6.912-0.982 10.624-2.73 49.238-13.526 96.042-27.99 141.098-35.072 8.192-70.656 11.734-109.398 3.84-45.526-9.344-78.678-32.512-111.19-60.33 8.832-24.106 14.336-49.238 17.366-75.606 46.336 12.886 91.69 20.438 143.488 9.002 35.072-7.552 62.122-22.698 88.79-39.594zM5386.838 1573.925h-242.134v-1405.482h242.134v1405.482z" />
<glyph unicode="&#x27a1;" glyph-name="arrow-right" d="M1984 768l-960 960v-576h-1024v-768h1024v-576z" />
<glyph unicode="&#x2b05;" glyph-name="arrow-left" d="M64 768l960-960v576h1024v768h-1024v576z" />
<glyph unicode="&#x2b06;" glyph-name="arrow-up" d="M1024 1728l-960-960h576v-1024h768v1024h576z" />
<glyph unicode="&#x2b07;" glyph-name="arrow-down" d="M1024-192l960 960h-576v1024h-768v-1024h-576z" />
<glyph unicode="&#xe000;" glyph-name="uniE000" d="M2048 731.429q0-198.858-137.142-367.428t-372.572-266.286-514.286-97.714q-80 0-165.714 9.142-226.286-200-525.714-276.572-56-16-130.286-25.142-19.428-2.286-34.858 10.286t-20 33.142v1.142q-3.428 4.572-0.572 13.714t2.286 11.428 5.142 10.858l6.858 10.286t8 9.714 9.142 10.286q8 9.142 35.428 39.428t39.428 43.428 35.428 45.142 37.142 58.286 30.858 67.428 29.714 86.858q-179.428 101.714-282.858 251.428t-103.428 321.142q0 148.572 81.142 284t218.286 233.714 326.858 156 397.714 57.714q278.858 0 514.286-97.714t372.572-266.286 137.142-367.428z" />
<glyph unicode="&#xe005;" glyph-name="uniE005" d="M1909.536 637.793l-13.27 20.85c-21.198 31.172-42.29 62.322-74.14 83.126-26.482 18.226-58.286 31.172-87.328 44.196 82.044 38.994 138.18 93.532 164.7 163.698 18.538 57.22-15.338 103.914-15.338 150.692v5.18c0 52.060-71.986 85.792-138.18 103.996-39.836 7.78-83.744 7.78-123.434 5.262l-86.98-18.226 29.49 64.924c26.418 83.21 18.678 163.716-26.336 239.146l-7.904 12.9c-39.754 65.042-97.974 103.996-177.458 124.764-82.044 20.828-151.9 13.046-226.038-25.948-74.258-39.054-144.278-98.834-144.278-176.7v-5.18l-9.358-18.226-13.966 18.226-28.202 46.692c-42.396 65.006-96.156 103.996-162.404 122.226-58.286 12.964-106.25 7.762-156.59-18.226-55.542-33.732-87.612-85.852-100.882-158.538-13.27-75.364-0.042-148.174 39.69-220.854l18.414-26.070-63.53 20.892c-79.484 18.226-153.6 7.78-227.716-31.19-76.86-38.954-124.498-93.572-156.324-168.918-29.124-72.764-26.418-142.848 10.628-207.89 15.914-28.59 39.73-51.978 60.868-67.602 31.826-31.15 71.556-49.358 119.214-57.138l18.474-5.18-39.648-33.874c-37.13-31.232-58.244-70.162-71.498-109.116-13.212-46.756-7.926-93.554 18.532-137.81 13.27-20.746 26.482-38.788 47.676-51.958 21.198-18.062 47.658-31.108 79.402-33.75 58.286-13.046 119.214-13.046 185.344 7.844l-47.716-78.006-13.13-33.774c-26.524-83.026-18.638-155.83 21.116-231.178 18.556-28.732 39.73-54.66 60.928-78.030 31.762-28.59 71.414-46.798 119.172-59.844 79.3-20.704 158.78-18.020 235.662 20.892 74.14 38.954 121.714 101.418 145.614 179.282l2.56 15.524c50.358-54.454 98.016-90.87 151.040-103.894 52.918-15.542 105.86-13.024 153.54 18.226 45.014 26.030 76.782 70.162 92.654 124.786 13.212 57.138 13.212 114.258 0 179.1 26.418-18.044 52.96-31.068 84.686-38.788 84.686-26.052 158.902-23.37 233.020 15.566 71.498 38.912 119.172 101.418 142.972 181.924 21.27 77.952 15.986 153.276-23.744 225.998zM1525.596 1071.785l31.726 13.046c47.758 20.704 92.69 25.97 140.452 20.704 44.85-5.18 76.782-25.888 92.59-57.138l10.57-33.71-5.284-26.052c-18.492-46.774-58.286-83.15-124.416-111.716-26.482-12.924-55.562-18.186-87.328-23.286l-325.714-39.094-5.366 18.226-5.284 7.844 10.652 13.046 267.406 218.13zM1075.382 1399.241c13.23 51.958 50.358 90.93 98.016 116.942 47.676 25.988 100.618 31.232 150.898 13.024 55.684-13.024 95.332-41.596 119.254-85.77 13.212-26.012 21.092-57.202 21.092-90.972l-7.886-57.12c-10.57-28.59-23.84-54.62-39.69-78.030l-238.322-285.838c-23.798 18.186-50.276 31.214-76.842 44.174l-26.524 293.622-2.56 103.996 2.56 25.97zM622.756 1391.479c2.542 46.756 21.010 77.948 52.86 96.114 15.914 13.024 39.73 13.024 60.868 2.578 47.716-13.024 87.47-46.756 119.132-111.74 13.27-26.012 26.482-51.978 31.844-83.126l52.918-306.73-39.648-12.964-235.744 252.128-13.212 25.97c-21.198 46.798-34.386 90.972-29.020 137.77zM233.43 840.567c-21.156 38.912-21.156 77.866-5.244 116.86 18.514 49.458 52.918 88.37 103.136 109.18 47.758 26.012 95.332 33.732 148.338 20.828l71.498-28.59 233.020-166.318c-21.174-26.052-34.446-51.936-42.436-78.006l-381.298-46.756-26.418 5.18c-47.634 7.822-79.46 28.53-100.594 67.626zM983.040 73.921l-9.358-26.052c-18.556-46.756-53.7-85.728-101.334-106.414-47.698-26.052-99.798-31.232-147.332-18.35-53.106 13.046-93.596 44.238-114.788 85.852-13.17 25.888-24.106 57.138-24.106 88.37l12.842 59.658c5.366 26.052 18.596 52.082 39.754 72.828l222.332 259.954c26.482-13.046 59.638-26.052 88.822-28.714 5.216-88.27 33.17-181.984 33.17-283.196v-103.936zM882.094 593.519c-34.404 31.232-52.86 75.488-52.86 122.244 0 46.798 18.45 85.728 52.86 122.162 31.826 28.548 74.198 46.756 124.498 46.756 47.676 0 92.69-18.226 121.898-46.756 36.924-36.434 52.918-75.364 52.918-122.162 0-46.756-15.996-90.994-52.918-122.244-34.486-33.774-74.222-51.812-121.898-51.812-50.3-0.022-92.672 18.020-124.498 51.812zM1372.060 138.881c-5.284-46.898-21.198-80.672-53.042-93.696-18.45-12.86-39.648-12.86-60.846-10.382-50.3 13.046-90.052 51.978-119.132 114.442l-31.844 85.728-39.648 226.058 44.932 15.69 34.486 18.044 111.228-111.598 68.854-83.21 13.212-25.93c23.79-44.234 37.078-85.846 31.798-135.146zM1827.47 442.949c-13.27-52.1-45.038-91.036-90.112-111.74-47.574-26.052-95.332-31.25-148.192-13.046-31.844 7.698-53.002 20.892-71.498 41.572l-278.058 226.062 18.556 38.954 7.986 31.274 299.172 26.012 105.884 2.518 26.564-2.518c39.588-13.046 76.782-36.434 97.852-75.364 26.482-28.714 39.754-67.644 39.754-111.922l-7.908-51.798z" />
<glyph unicode="&#xe006;" glyph-name="uniE006" d="M1472 1755.429h-896c-105.6 0-192-86.4-192-192v-1664c0-105.6 86.4-192 192-192h896c105.6 0 192 86.4 192 192v1664c0 105.6-86.4 192-192 192zM768 1659.429h512v-64h-512v64zM1024-164.571c-70.692 0-128 57.308-128 128s57.308 128 128 128 128-57.308 128-128-57.308-128-128-128zM1536 219.429h-1024v1280h1024v-1280z" />
<glyph unicode="&#xe007;" glyph-name="uniE007" d="M1135.31 281.595c-163.89-76.238-316.316-75.434-418.678-68.042-122.102 8.818-220.316 42.25-263.484 71.466-26.602 18.012-62.766 11.044-80.782-15.566-18.006-26.606-11.040-62.77 15.566-80.782 69.394-46.972 192.138-81.906 320.324-91.158 21.732-1.568 45.596-2.556 71.292-2.556 111.566 0 253.252 10.634 404.842 81.138 29.13 13.554 41.756 48.146 28.206 77.28-13.55 29.138-48.15 41.746-77.284 28.22zM1781.898 367.795c5.572 505.376 57.522 1460.412-909.938 1383.222-955.204-76.882-701.93-1085.934-716.164-1423.894-12.618-178.774-71.958-397.298-155.794-619.694h258.198c26.532 94.244 46.048 187.438 54.464 276.302 15.566-10.858 32.214-21.348 49.988-31.402 28.914-17.038 53.77-39.69 80.078-63.666 61.486-56.036 131.182-119.548 267.424-127.506 9.142-0.526 18.35-0.786 27.35-0.786 137.792 0 232.028 60.306 307.758 108.764 36.278 23.222 67.634 43.282 97.13 52.906 83.822 26.24 157.066 68.594 211.808 122.506 8.554 8.416 16.484 17.074 23.922 25.898 30.492-111.758 72.238-237.518 118.574-363.008l551.306-0.004c-132.348 204.448-268.874 404.75-266.102 660.366zM248.22 642.725c0 0.032 0 0.060-0.004 0.092-9.49 164.924 69.422 303.666 176.252 309.874 106.826 6.212 201.12-122.454 210.61-287.382 0-0.028 0.010-0.060 0.010-0.086 0.512-8.892 0.736-17.692 0.74-26.414-33.846-8.512-64.384-20.874-91.744-35.26-0.106 1.226-0.182 2.432-0.306 3.662 0 0.018 0 0.036 0 0.050-9.138 93.618-59.146 164.32-111.702 157.916-52.562-6.41-87.762-87.502-78.624-181.116 0-0.018 0.010-0.036 0.010-0.050 3.982-40.814 15.734-77.27 32.082-104.886-4.068-3.21-15.566-11.626-28.814-21.312-9.938-7.268-22.038-16.114-36.626-26.862-39.762 52.182-67.012 127.154-71.882 211.776zM1330.518 235.073c-3.798-87.172-117.814-169.184-223.164-202.090l-0.594-0.192c-43.798-14.204-82.858-39.2-124.21-65.66-69.462-44.448-141.294-90.418-245.042-90.418-6.806 0-13.788 0.206-20.654 0.594-95.030 5.554-139.484 46.062-195.758 97.354-29.682 27.054-60.38 55.026-99.95 78.25l-0.846 0.49c-85.412 48.21-138.422 108.164-141.814 160.388-1.682 25.962 9.874 48.434 34.364 66.798 53.27 39.946 88.956 66.044 112.566 83.314 26.222 19.178 34.134 24.96 40 30.528 4.192 3.972 8.726 8.374 13.61 13.124 48.892 47.548 130.72 127.122 256.302 127.122 76.81 0 161.796-29.6 252.338-87.804 42.646-27.758 79.762-40.572 126.762-56.8 32.31-11.154 68.938-23.804 117.984-44.81l0.79-0.33c45.76-18.802 99.79-53.124 97.316-109.86zM1305.294 439.817c-8.8 4.43-17.948 8.64-27.488 12.572-44.21 18.912-79.666 31.748-109.070 41.998 16.234 31.79 26.322 71.438 27.25 114.482 0 0.018 0 0.046 0 0.060 2.254 104.75-50.574 189.792-117.994 189.952-67.42 0.156-123.9-84.626-126.154-189.372 0-0.018 0-0.036 0-0.054-0.078-3.428-0.082-6.83-0.042-10.222-41.522 19.104-82.358 32.978-122.332 41.522-0.182 3.936-0.406 7.862-0.49 11.84 0 0.032 0 0.074 0 0.1-3.876 190.826 113.202 348.782 261.508 352.804 148.302 4.028 271.658-147.402 275.542-338.222 0-0.036 0-0.078 0-0.106 1.75-86.29-21.316-165.732-60.736-227.356z" />
<glyph unicode="&#xe01c;" glyph-name="uniE01C" horiz-adv-x="1756" d="M877.714 1609.143q238.858 0 440.572-117.714t319.428-319.428 117.714-440.572-117.714-440.572-319.428-319.428-440.572-117.714-440.572 117.714-319.428 319.428-117.714 440.572 117.714 440.572 319.428 319.428 440.572 117.714zM1024 184.001v217.142q0 16-10.286 26.858t-25.142 10.858h-219.428q-14.858 0-26.286-11.428t-11.428-26.286v-217.142q0-14.858 11.428-26.286t26.286-11.428h219.428q14.858 0 25.142 10.858t10.286 26.858zM1021.714 577.143l20.572 709.714q0 13.714-11.428 20.572-11.428 9.142-27.428 9.142h-251.428q-16 0-27.428-9.142-11.428-6.858-11.428-20.572l19.428-709.714q0-11.428 11.428-20t27.428-8.572h211.428q16 0 26.858 8.572t12 20z" />
<glyph unicode="&#xe02c;" glyph-name="uniE02C" horiz-adv-x="1756" d="M1462.858 392.001q0 12.572-2.286 18.286-3.428 9.142-44 33.714t-101.142 56.572l-60.572 33.142q-5.714 3.428-21.714 14.858t-28.572 17.142-24 5.714q-20.572 0-53.714-37.142t-65.142-74.858-50.286-37.714q-8 0-18.858 4t-17.714 7.428-19.428 10.858-16 9.714q-113.142 62.858-194.858 144.572t-144.572 194.858q-2.286 3.428-9.714 16t-10.858 19.428-7.428 17.714-4 18.858q0 14.858 23.428 38.286t51.428 44 51.428 45.142 23.428 41.714q0 11.428-5.714 24t-17.142 28.572-14.858 21.714q-3.428 6.858-17.142 32.572t-28.572 52-30.286 54.286-28.572 46.286-18.858 20.572-18.286 2.286q-54.858 0-115.428-25.142-52.572-24-91.428-108t-38.858-149.142q0-18.286 2.858-38.858t5.714-34.858 10.286-37.714 11.428-33.714 14.286-37.714 12.572-34.286q68.572-187.428 247.428-366.286t366.286-247.428q6.858-2.286 34.286-12.572t37.714-14.286 33.714-11.428 37.714-10.286 34.858-5.714 38.858-2.858q65.142 0 149.142 38.858t108 91.428q25.142 60.572 25.142 115.428zM1755.428 1280.001v-1097.142q0-136-96.572-232.572t-232.572-96.572h-1097.142q-136 0-232.572 96.572t-96.572 232.572v1097.142q0 136 96.572 232.572t232.572 96.572h1097.142q136 0 232.572-96.572t96.572-232.572z" />
<glyph unicode="&#xe02d;" glyph-name="uniE02D" d="M2048 402.287v-219.428q0-14.858-10.858-25.714t-25.714-10.858h-1572.572v-219.428q0-14.858-10.858-25.714t-25.714-10.858q-13.714 0-27.428 11.428l-364.572 365.714q-10.286 10.286-10.286 25.142 0 16 10.286 26.286l365.714 365.714q10.286 10.286 26.286 10.286 14.858 0 25.714-10.858t10.858-25.714v-219.428h1572.572q14.858 0 25.714-10.858t10.858-25.714zM2048 1024.001q0-16-10.286-26.286l-365.714-365.714q-10.286-10.286-26.286-10.286-14.858 0-25.714 10.858t-10.858 25.714v219.428h-1572.572q-14.858 0-25.714 10.858t-10.858 25.714v219.428q0 14.858 10.858 25.714t25.714 10.858h1572.572v219.428q0 16 10.286 26.286t26.286 10.286q13.714 0 27.428-11.428l364.572-364.572q10.286-10.286 10.286-26.286z" />
<glyph unicode="&#xe02f;" glyph-name="uniE02F" d="M102.542 560.993c30.538 284.572 267.058 385.23 301.692 398.436-58.78 46.492-96.42 117.7-96.42 197.508 0 140.124 115.894 253.686 258.908 253.686 142.948 0 258.93-113.564 258.93-253.686 0-79.054-36.924-149.668-94.78-196.22 48.416-17.078 95.99-42.62 138.528-75.94-112.54-56.26-360.306-218.418-397.884-568.42-0.060-2.972-0.060-5.796-0.060-8.662-217.682 13.66-239.904 72.662-239.904 72.662l-0.004 0.046c-13.842 13.436-24.594 29.902-31.15 50.506-31.726 7.31-51.652 26.4-51.652 26.4s-48.7 18.122-46.204 103.684zM1010.158 875.795c-51.364-19.638-401.696-168.754-447.018-590.418-3.708-126.77 68.402-153.582 68.402-153.582s0 0 0-0.042c0 0 29.614-28.242 76.658-39.076 9.686-30.514 25.558-54.966 46.122-74.876v-0.060c0 0 34.528-92.142 381.482-109.156 5.138-0.9 10.198-1.718 15.218-2.66 28.754 0 57.526 0 86.282 0 10.812 0 21.852-0.082 33.198 0 33.098 0 66.13 0 99.164 0 8.54 1.554 17.202 2.99 25.93 4.402 356.516 23.716 394.058 135.108 394.058 135.108l-0.060 0.1c9.462 13.924 17.326 29.472 22.958 47.164 162.262 32.074 149.444 225.18 100.864 373.514-67.502 205.966-239.268 347.872-419.31 411.484 85.728 68.914 140.43 173.568 140.43 290.692 0 207.606-171.766 375.89-383.63 375.89-211.868 0-383.63-168.306-383.63-375.89-0.004-118.272 55.74-223.68 142.884-292.594z" />
<glyph unicode="&#xe030;" glyph-name="uniE030" d="M1861.92 589.787c6.88 43.52 10.506 88.046 10.506 133.49 0 472.31-382.852 855.164-855.182 855.164-45.322 0-89.97-3.726-133.45-10.528-78.766 48.722-171.726 76.924-271.342 76.924-285.408 0-516.768-231.342-516.768-516.772 0-99.594 28.22-192.47 76.924-271.402-6.738-43.58-10.446-87.964-10.446-133.408 0-472.33 382.852-855.082 855.058-855.082 45.362 0 90.012 3.502 133.49 10.364 78.848-48.64 171.726-76.924 271.342-76.924 285.472 0 516.814 231.406 516.814 516.832 0.018 99.62-28.182 192.494-76.946 271.342zM1423.26 334.341c-36.188-52.082-89.312-92.772-158.762-122.038-69.59-29.326-151.818-43.932-246.784-43.932-113.828 0-208.078 19.908-282.46 60.128-52.736 28.796-95.62 67.442-128.594 115.63-33.034 48.21-49.788 95.414-49.788 141.454 0 27.154 10.364 50.788 30.514 70.044 20.38 19.396 46.61 29.124 77.578 29.124 25.376 0 47.164-7.638 64.9-22.774 17.614-15.136 32.38-37.13 44.462-66.172 14.478-33.65 30.208-61.77 46.94-84.192 16.63-22.158 40.036-40.672 70.35-55.154 29.984-14.518 69.878-21.77 119.808-21.77 68.32 0 123.556 14.766 165.806 43.932 42.478 29.408 62.894 65.206 62.894 108.484 0 34.486-11.018 61.91-33.568 83.274-22.752 21.628-52.164 38.112-88.636 49.604-36.618 11.612-85.792 23.94-147.414 36.924-82.738 18.044-151.94 39.076-207.972 63.2-56.114 24.246-100.804 57.362-133.92 99.204-33.198 42.25-49.746 94.762-49.746 156.96 0 59.31 17.468 112.352 52.448 158.514 34.958 46.286 85.546 81.714 151.492 106.396 65.718 24.676 143.094 37.006 231.73 37.006 70.88 0 132.196-8.192 184.096-24.516 51.772-16.444 94.902-38.134 129.394-65.354 34.304-27.154 59.516-55.808 75.488-85.874 15.954-30.148 24.004-59.598 24.004-88.33 0-26.724-10.364-50.954-30.538-72.192-20.192-21.28-45.998-32.114-76.146-32.010-27.178 0-48.498 6.268-63.282 19.538-14.396 12.842-29.514 33.28-45.874 61.77-20.662 39.754-45.426 70.716-74.24 92.878-28.036 21.728-74.3 33.056-138.67 32.91-59.556 0-107.214-12.164-143.178-35.964-36.188-24.188-53.494-52.242-53.578-85.116 0.060-20.604 5.98-37.97 17.902-52.818 12.106-14.99 28.938-27.978 50.588-38.93 21.646-11.122 43.662-19.722 65.802-25.906 22.386-6.35 59.534-15.524 111.164-27.666 64.758-13.966 123.516-29.554 176.292-46.55 52.676-17.078 97.628-37.682 134.78-62.218 37.436-24.476 66.702-55.666 87.594-93.348 21.010-37.746 31.498-83.844 31.498-138.076 0.082-65.334-18.126-124.074-54.372-176.074z" />
<glyph unicode="&#xe032;" glyph-name="uniE032" d="M1024 1755.429c-565.54 0-1024-458.46-1024-1024s458.46-1024 1024-1024 1024 458.46 1024 1024-458.46 1024-1024 1024zM512 1243.429h1024c18.276 0 36.010-3.922 52.288-11.324l-564.288-658.336-564.288 658.34c16.278 7.392 34.012 11.318 52.288 11.318zM384 347.429v768c0 2.678 0.114 5.344 0.278 8l375.328-437.884-371.196-371.196c-2.89 10.67-4.412 21.77-4.412 33.078zM1536 219.429h-1024c-11.31 0-22.404 1.522-33.078 4.416l364.238 364.238 180.842-210.998 180.85 210.99 364.234-364.242c-10.684-2.88-21.774-4.402-33.084-4.402zM1664 347.429c0-11.31-1.522-22.4-4.412-33.078l-371.2 371.196 375.332 437.884c0.17-2.656 0.278-5.322 0.278-8v-768z" />
<glyph unicode="&#xe033;" glyph-name="uniE033" d="M1.614 16.101c-0.49 5.066-0.906 10.14-1.17 15.26 0.26-5.12 0.682-10.194 1.17-15.26zM471.818 625.135c184.018-5.476 307.47 185.394 275.726 426.396-31.79 240.96-206.794 434.336-390.816 439.844-184.050 5.458-307.478-178.962-275.702-420 31.762-240.938 206.702-440.75 390.794-446.24zM2048 1243.429v170.62c0 187.762-153.564 341.38-341.316 341.38h-1365.312c-184.554 0-336.022-148.466-341.13-331.854 116.722 102.77 278.646 188.63 445.746 188.63 178.61 0 714.486 0 714.486 0l-159.894-135.236h-226.538c150.258-57.61 230.314-232.246 230.314-411.442 0-150.496-83.62-279.908-201.778-371.936-115.286-89.806-137.142-127.414-137.142-203.758 0-65.156 123.492-176 188.064-221.578 188.764-133.074 249.834-256.626 249.834-462.912 0-32.854-4.082-65.66-12.132-97.92h615.484c187.754 0.004 341.316 153.504 341.316 341.386v1066.614h-384v-383.996h-128v384h-383.996v128h383.996v384h128v-384h384zM371.772 223.557c43.228 0 82.844 1.18 123.872 1.18-54.29 52.668-97.252 117.198-97.252 196.758 0 47.218 15.126 92.672 36.27 133.038-21.564-1.54-43.58-1.988-66.254-1.988-148.714 0-275.012 48.15-368.406 127.708v-134.482l0.014-403.46c106.88 50.752 233.774 81.248 371.758 81.248zM6.838-19.085c-2.226 10.916-3.932 22.012-5.084 33.266 1.148-11.254 2.862-22.35 5.084-33.266zM910.898-150.263c-30.116 117.614-136.91 175.926-285.778 279.136-54.144 17.462-113.788 27.748-177.788 28.416-179.236 1.93-346.218-69.884-440.434-176.746 31.844-155.41 170.076-273.116 334.474-273.116h572.886c3.63 22.258 5.39 45.266 5.39 68.864 0.004 25.070-3.062 49.586-8.75 73.444z" />
<glyph unicode="&#xe034;" glyph-name="uniE034" d="M1408 1755.429h-768c-141.376 0-256-114.624-256-256v-1536c0-141.376 114.624-256 256-256h768c141.376 0 256 114.624 256 256v1536c0 141.376-114.624 256-256 256zM1056 1563.429h192c17.6 0 32-14.336 32-32s-14.4-32-32-32h-192c-17.664 0-32 14.336-32 32s14.336 32 32 32zM832 1627.429c35.328 0 64-28.672 64-64s-28.672-64-64-64-64 28.672-64 64 28.672 64 64 64zM1152-100.571c0-35.392-28.608-64-64-64h-128c-35.328 0-64 28.608-64 64v128c0 35.392 28.672 64 64 64h128c35.392 0 64-28.608 64-64v-128zM1536 283.429c0-35.392-28.608-64-64-64h-896c-35.328 0-64 28.608-64 64v1024c0 35.328 28.672 64 64 64h896c35.392 0 64-28.672 64-64v-1024z" />
<glyph unicode="&#xe035;" glyph-name="uniE035" d="M1859.072 726.373c-0.448-0.192-0.896-0.448-1.152-0.448 0-0.32 0-0.768 0-1.024-132.608-68.48-254.016-95.68-363.136-95.68-165.184 0-302.208 62.4-407.488 139.456-0.64 0.448-1.472 1.024-1.984 1.6l191.488 725.504c60.544-51.648 197.504-148.288 405.056-148.288 104.512 0 226.624 24.448 366.080 91.136l-188.864-712.256zM600.512 1008.549c-1.728 0-3.392 0-5.184 0-99.072 0-216.96-28.736-362.368-93.696l186.752 717.824c141.504 63.168 256.64 88.64 352.64 90.688 0.704 0 1.408 0 2.176 0 56.448 0 107.456-7.36 152.576-19.072 94.464-26.368 230.272-115.392 230.272-115.392v-0.512c-38.912-145.92-154.112-578.304-192.96-722.304-101.376 73.536-210.304 140.736-363.904 142.464zM528.32 833.637c12.288 1.152 24.512 1.536 36.736 1.536 107.776 0 206.144-41.28 276.736-80.896 30.208-17.792 58.752-37.184 87.104-56.448-25.088-94.144-157.312-588.224-196.224-732.672-104.896 76.416-216.064 144.256-376.384 144.256-97.344 0-213.056-25.28-356.224-88.512l189.568 719.488c21.568 9.6 42.624 18.432 63.040 26.496 69.12 26.624 167.552 56.832 275.648 66.752zM1452.032 461.029c100.608 0 219.712 20.352 357.888 74.56l-182.144-696.96c-157.056-70.912-282.624-99.136-387.648-99.136-165.952 0-387.136 149.312-386.88 149.12l188.992 718.336c57.536-50.24 190.72-145.92 409.792-145.92z" />
<glyph unicode="&#xe036;" glyph-name="uniE036" d="M813.504 93.669c-420.992-335.36-534.528-254.272-340.544 243.648-540.8-27.904-584.192 103.616-130.112 394.112-454.080 290.56-410.688 421.952 130.112 394.176-193.92 497.856-80.384 579.072 340.544 243.584 140.288 514.944 280.64 514.944 420.992 0 420.928 335.488 534.528 254.272 340.48-243.584 540.864 27.776 584.192-103.616 130.112-394.176 454.080-290.496 410.752-422.016-130.112-394.112 193.984-497.856 80.448-579.008-340.48-243.648-140.288-515.008-280.704-515.008-420.992 0z" />
<glyph unicode="&#xe037;" glyph-name="uniE037" horiz-adv-x="1536" d="M1024 1755.429h-512c-282.752 0-512-229.248-512-512v-1024c0-282.752 229.248-512 512-512h512c282.752 0 512 229.248 512 512v1024c0 282.752-229.248 512-512 512zM768-168.539c-72.896 0-131.968 59.008-131.968 131.968s59.136 131.968 131.968 131.968 131.968-59.008 131.968-131.968-59.072-131.968-131.968-131.968zM1280 219.429h-1024v1024c0 140.992 114.88 256 256 256h512c140.992 0 256-115.008 256-256v-1024z" />
<glyph unicode="&#xe600;" glyph-name="resize" d="M1661.312 64.64l-623.040 0.256 238.912 238.848-285.12 285.056 170.56 170.56 285.056-285.056 216.512 216.576-2.88-626.24zM588.48 992.384l-203.648-207.232-1.088 622.208 619.52-0.256-244.16-244.16 315.136-315.2-170.56-170.56-315.2 315.2z" />
<glyph unicode="&#xe601;" glyph-name="auction" d="M674.158 1470.154l484.524-279.746c38.282-22.060 87.122-8.95 109.1 29.256 22.142 38.204 9.030 87.122-29.174 109.1l-484.524 279.746c-38.282 22.060-87.122 8.95-109.184-29.174-22.142-38.204-8.95-87.038 29.256-109.184zM1118.796 1121.188l-484.524 279.746-279.746-484.524 484.524-279.746 279.746 484.524zM234.552 708.762l484.524-279.746c38.204-22.060 87.122-8.95 109.1 29.256 22.060 38.204 8.95 87.122-29.174 109.1l-484.524 279.746c-38.282 22.060-87.122 8.95-109.184-29.174-22.142-38.204-8.95-87.122 29.256-109.184zM1904.164 483.206l-885.278 464.942-79.928-138.436 845.314-534.158c57.306-33.088 130.68-13.506 163.77 43.88s13.428 130.68-43.88 163.77zM1026.636 79.65c0 44.2-35.806 79.928-79.928 79.928h-719.35c-44.2 0-79.928-35.728-79.928-79.928 0-44.12 0-79.928 0-79.928l-82.566 1.678 2.636-81.606h1039.058l3.758 76.572-78.648 3.356c0 0-5.036 35.806-5.036 79.928z" />
<glyph unicode="&#xe900;" glyph-name="slack" horiz-adv-x="1902" d="M1736 868.571q70.858 0 118.286-46.286t47.428-116q0-110.858-106.286-148.572l-196.572-67.428 64-190.858q8-24 8-53.714 0-67.428-48-116.572t-115.428-49.142q-53.714 0-97.714 30.858t-61.142 82.286l-62.858 188.572-354.286-121.142 62.858-187.428q9.142-27.428 9.142-53.714 0-67.428-48-116.572t-116.572-49.142q-53.714 0-97.142 30.858t-60.572 82.286l-62.858 186.286-174.858-60.572q-33.142-10.286-57.142-10.286-69.714 0-116 45.714t-46.286 115.428q0 53.714 31.428 97.142t81.714 60.572l178.286 60.572-120 357.714-178.286-61.714q-29.714-9.142-54.858-9.142-68.572 0-115.428 46.286t-46.858 114.858q0 53.714 31.428 97.142t81.714 60.572l179.428 60.572-60.572 181.714q-9.142 27.428-9.142 53.714 0 68.572 48 117.142t116.572 48.572q53.714 0 97.142-30.858t60.572-82.286l61.714-182.858 354.286 120-61.714 182.858q-9.142 27.428-9.142 53.714 0 67.428 48.572 116.572t116 49.142q53.714 0 97.714-31.428t61.142-81.714l60.572-184 185.142 62.858q24 6.858 49.142 6.858 68.572 0 117.142-45.142t48.572-112.572q0-51.428-34.286-93.142t-84.572-58.858l-179.428-61.714 120-361.142 187.428 64q27.428 9.142 52.572 9.142zM828.572 569.143l354.286 120-120 360-354.286-122.286z" />
<glyph unicode="&#xe901;" glyph-name="loop2" d="M1779.36 1459.36c-187.216 204.432-456.308 332.64-755.36 332.64-565.54 0-1024-458.46-1024-1024h192c0 459.5 372.5 832 832 832 246.040 0 467.084-106.836 619.392-276.612l-299.392-299.388h704v704l-268.64-268.64zM1856 768c0-459.5-372.5-832-832-832-246.040 0-467.084 106.836-619.388 276.612l299.388 299.388h-704v-704l268.64 268.64c187.216-204.432 456.308-332.64 755.36-332.64 565.54 0 1024 458.46 1024 1024h-192z" />
<glyph unicode="&#xf002;" glyph-name="uniF002" horiz-adv-x="1902" d="M1316.572 804.571q0 211.428-150.286 361.714t-361.714 150.286-361.714-150.286-150.286-361.714 150.286-361.714 361.714-150.286 361.714 150.286 150.286 361.714zM1901.714-146.285q0-59.428-43.428-102.858t-102.858-43.428q-61.714 0-102.858 43.428l-392 390.858q-204.572-141.714-456-141.714-163.428 0-312.572 63.428t-257.142 171.428-171.428 257.142-63.428 312.572 63.428 312.572 171.428 257.142 257.142 171.428 312.572 63.428 312.572-63.428 257.142-171.428 171.428-257.142 63.428-312.572q0-251.428-141.714-456l392-392q42.286-42.286 42.286-102.858z" />
<glyph unicode="&#xf003;" glyph-name="uniF003" d="M1901.714 36.571v877.714q-36.572-41.142-78.858-75.428-306.286-235.428-486.858-386.286-58.286-49.142-94.858-76.572t-98.858-55.428-117.142-28h-2.286q-54.858 0-117.142 28t-98.858 55.428-94.858 76.572q-180.572 150.858-486.858 386.286-42.286 34.286-78.858 75.428v-877.714q0-14.858 10.858-25.714t25.714-10.858h1682.286q14.858 0 25.714 10.858t10.858 25.714zM1901.714 1237.715v28t-0.572 14.858-3.428 14.286-6.286 10.286-10.286 8.572-16 2.858h-1682.286q-14.858 0-25.714-10.858t-10.858-25.714q0-192 168-324.572 220.572-173.714 458.286-362.286 6.858-5.714 40-33.714t52.572-42.858 50.858-36 57.714-31.428 49.142-10.286h2.286q22.858 0 49.142 10.286t57.714 31.428 50.858 36 52.572 42.858 40 33.714q237.714 188.572 458.286 362.286 61.714 49.142 114.858 132t53.142 150.286zM2048 1280.001v-1243.428q0-75.428-53.714-129.142t-129.142-53.714h-1682.286q-75.428 0-129.142 53.714t-53.714 129.142v1243.428q0 75.428 53.714 129.142t129.142 53.714h1682.286q75.428 0 129.142-53.714t53.714-129.142z" />
<glyph unicode="&#xf007;" glyph-name="uniF007" horiz-adv-x="1610" d="M1609.142 149.715q0-137.142-83.428-216.572t-221.714-79.428h-998.858q-138.286 0-221.714 79.428t-83.428 216.572q0 60.572 4 118.286t16 124.572 30.286 124 49.142 111.428 70.858 92.572 97.714 61.142 127.428 22.858q10.286 0 48-24.572t85.142-54.858 123.428-54.858 152.572-24.572 152.572 24.572 123.428 54.858 85.142 54.858 48 24.572q69.714 0 127.428-22.858t97.714-61.142 70.858-92.572 49.142-111.428 30.286-124 16-124.572 4-118.286zM1243.428 1170.287q0-181.714-128.572-310.286t-310.286-128.572-310.286 128.572-128.572 310.286 128.572 310.286 310.286 128.572 310.286-128.572 128.572-310.286z" />
<glyph unicode="&#xf009;" glyph-name="cols-2" horiz-adv-x="1902" d="M877.714 585.143v-438.858q0-59.428-43.428-102.858t-102.858-43.428h-585.142q-59.428 0-102.858 43.428t-43.428 102.858v438.858q0 59.428 43.428 102.858t102.858 43.428h585.142q59.428 0 102.858-43.428t43.428-102.858zM877.714 1462.857v-438.858q0-59.428-43.428-102.858t-102.858-43.428h-585.142q-59.428 0-102.858 43.428t-43.428 102.858v438.858q0 59.428 43.428 102.858t102.858 43.428h585.142q59.428 0 102.858-43.428t43.428-102.858zM1901.714 585.143v-438.858q0-59.428-43.428-102.858t-102.858-43.428h-585.142q-59.428 0-102.858 43.428t-43.428 102.858v438.858q0 59.428 43.428 102.858t102.858 43.428h585.142q59.428 0 102.858-43.428t43.428-102.858zM1901.714 1462.857v-438.858q0-59.428-43.428-102.858t-102.858-43.428h-585.142q-59.428 0-102.858 43.428t-43.428 102.858v438.858q0 59.428 43.428 102.858t102.858 43.428h585.142q59.428 0 102.858-43.428t43.428-102.858z" />
<glyph unicode="&#xf00a;" glyph-name="cols-3" d="M585.142 329.143v-219.428q0-45.714-32-77.714t-77.714-32h-365.714q-45.714 0-77.714 32t-32 77.714v219.428q0 45.714 32 77.714t77.714 32h365.714q45.714 0 77.714-32t32-77.714zM585.142 914.287v-219.428q0-45.714-32-77.714t-77.714-32h-365.714q-45.714 0-77.714 32t-32 77.714v219.428q0 45.714 32 77.714t77.714 32h365.714q45.714 0 77.714-32t32-77.714zM1316.572 329.143v-219.428q0-45.714-32-77.714t-77.714-32h-365.714q-45.714 0-77.714 32t-32 77.714v219.428q0 45.714 32 77.714t77.714 32h365.714q45.714 0 77.714-32t32-77.714zM585.142 1499.429v-219.428q0-45.714-32-77.714t-77.714-32h-365.714q-45.714 0-77.714 32t-32 77.714v219.428q0 45.714 32 77.714t77.714 32h365.714q45.714 0 77.714-32t32-77.714zM1316.572 914.287v-219.428q0-45.714-32-77.714t-77.714-32h-365.714q-45.714 0-77.714 32t-32 77.714v219.428q0 45.714 32 77.714t77.714 32h365.714q45.714 0 77.714-32t32-77.714zM2048 329.143v-219.428q0-45.714-32-77.714t-77.714-32h-365.714q-45.714 0-77.714 32t-32 77.714v219.428q0 45.714 32 77.714t77.714 32h365.714q45.714 0 77.714-32t32-77.714zM1316.572 1499.429v-219.428q0-45.714-32-77.714t-77.714-32h-365.714q-45.714 0-77.714 32t-32 77.714v219.428q0 45.714 32 77.714t77.714 32h365.714q45.714 0 77.714-32t32-77.714zM2048 914.287v-219.428q0-45.714-32-77.714t-77.714-32h-365.714q-45.714 0-77.714 32t-32 77.714v219.428q0 45.714 32 77.714t77.714 32h365.714q45.714 0 77.714-32t32-77.714zM2048 1499.429v-219.428q0-45.714-32-77.714t-77.714-32h-365.714q-45.714 0-77.714 32t-32 77.714v219.428q0 45.714 32 77.714t77.714 32h365.714q45.714 0 77.714-32t32-77.714z" />
<glyph unicode="&#xf00c;" glyph-name="uniF00C" d="M1909.714 1108.571q0-45.714-32-77.714l-982.858-982.858q-32-32-77.714-32t-77.714 32l-569.142 569.142q-32 32-32 77.714t32 77.714l155.428 155.428q32 32 77.714 32t77.714-32l336-337.142 749.714 750.858q32 32 77.714 32t77.714-32l155.428-155.428q32-32 32-77.714z" />
<glyph unicode="&#xf00d;" glyph-name="uniF00D" horiz-adv-x="1610" d="M1483.428 244.571q0-45.714-32-77.714l-155.428-155.428q-32-32-77.714-32t-77.714 32l-336 336-336-336q-32-32-77.714-32t-77.714 32l-155.428 155.428q-32 32-32 77.714t32 77.714l336 336-336 336q-32 32-32 77.714t32 77.714l155.428 155.428q32 32 77.714 32t77.714-32l336-336 336 336q32 32 77.714 32t77.714-32l155.428-155.428q32-32 32-77.714t-32-77.714l-336-336 336-336q32-32 32-77.714z" />
<glyph unicode="&#xf013;" glyph-name="uniF013" horiz-adv-x="1756" d="M1170.286 731.429q0 121.142-85.714 206.858t-206.858 85.714-206.858-85.714-85.714-206.858 85.714-206.858 206.858-85.714 206.858 85.714 85.714 206.858zM1755.428 856.001v-253.714q0-13.714-9.142-26.286t-22.858-14.858l-211.428-32q-21.714-61.714-44.572-104 40-57.142 122.286-157.714 11.428-13.714 11.428-28.572t-10.286-26.286q-30.858-42.286-113.142-123.428t-107.428-81.142q-13.714 0-29.714 10.286l-157.714 123.428q-50.286-26.286-104-43.428-18.286-155.428-33.142-212.572-8-32-41.142-32h-253.714q-16 0-28 9.714t-13.142 24.572l-32 210.286q-56 18.286-102.858 42.286l-161.142-122.286q-11.428-10.286-28.572-10.286-16 0-28.572 12.572-144 130.286-188.572 192-8 11.428-8 26.286 0 13.714 9.142 26.286 17.142 24 58.286 76t61.714 80.572q-30.858 57.142-46.858 113.142l-209.142 30.858q-14.858 2.286-24 14.286t-9.142 26.858v253.714q0 13.714 9.142 26.286t21.714 14.858l212.572 32q16 52.572 44.572 105.142-45.714 65.142-122.286 157.714-11.428 13.714-11.428 27.428 0 11.428 10.286 26.286 29.714 41.142 112.572 122.858t108 81.714q14.858 0 29.714-11.428l157.714-122.286q50.286 26.286 104 43.428 18.286 155.428 33.142 212.572 8 32 41.142 32h253.714q16 0 28-9.714t13.142-24.572l32-210.286q56-18.286 102.858-42.286l162.286 122.286q10.286 10.286 27.428 10.286 14.858 0 28.572-11.428 147.428-136 188.572-194.286 8-9.142 8-25.142 0-13.714-9.142-26.286-17.142-24-58.286-76t-61.714-80.572q29.714-57.142 46.858-112l209.142-32q14.858-2.286 24-14.286t9.142-26.858z" />
<glyph unicode="&#xf014;" glyph-name="uniF014" horiz-adv-x="1610" d="M585.142 914.287v-658.286q0-16-10.286-26.286t-26.286-10.286h-73.142q-16 0-26.286 10.286t-10.286 26.286v658.286q0 16 10.286 26.286t26.286 10.286h73.142q16 0 26.286-10.286t10.286-26.286zM877.714 914.287v-658.286q0-16-10.286-26.286t-26.286-10.286h-73.142q-16 0-26.286 10.286t-10.286 26.286v658.286q0 16 10.286 26.286t26.286 10.286h73.142q16 0 26.286-10.286t10.286-26.286zM1170.286 914.287v-658.286q0-16-10.286-26.286t-26.286-10.286h-73.142q-16 0-26.286 10.286t-10.286 26.286v658.286q0 16 10.286 26.286t26.286 10.286h73.142q16 0 26.286-10.286t10.286-26.286zM1316.572 86.857v1083.428h-1024v-1083.428q0-25.142 8-46.286t16.572-30.858 12-9.714h950.858q3.428 0 12 9.714t16.572 30.858 8 46.286zM548.572 1316.571h512l-54.858 133.714q-8 10.286-19.428 12.572h-362.286q-11.428-2.286-19.428-12.572zM1609.142 1280.001v-73.142q0-16-10.286-26.286t-26.286-10.286h-109.714v-1083.428q0-94.858-53.714-164t-129.142-69.142h-950.858q-75.428 0-129.142 66.858t-53.714 161.714v1088h-109.714q-16 0-26.286 10.286t-10.286 26.286v73.142q0 16 10.286 26.286t26.286 10.286h353.142l80 190.858q17.142 42.286 61.714 72t90.286 29.714h365.714q45.714 0 90.286-29.714t61.714-72l80-190.858h353.142q16 0 26.286-10.286t10.286-26.286z" />
<glyph unicode="&#xf017;" glyph-name="uniF017" horiz-adv-x="1756" d="M1243.428 694.857v-73.142q0-14.858-10.858-25.714t-25.714-10.858h-438.858q-14.858 0-25.714 10.858t-10.858 25.714v512q0 14.858 10.858 25.714t25.714 10.858h73.142q14.858 0 25.714-10.858t10.858-25.714v-402.286h329.142q14.858 0 25.714-10.858t10.858-25.714zM1462.858 731.429q0 118.858-46.286 226.858t-125.142 186.858-186.858 125.142-226.858 46.286-226.858-46.286-186.858-125.142-125.142-186.858-46.286-226.858 46.286-226.858 125.142-186.858 186.858-125.142 226.858-46.286 226.858 46.286 186.858 125.142 125.142 186.858 46.286 226.858zM1755.428 731.429q0-238.858-117.714-440.572t-319.428-319.428-440.572-117.714-440.572 117.714-319.428 319.428-117.714 440.572 117.714 440.572 319.428 319.428 440.572 117.714 440.572-117.714 319.428-319.428 117.714-440.572z" />
<glyph unicode="&#xf019;" glyph-name="uniF019" horiz-adv-x="1902" d="M1530.286 833.143q19.428-46.858-16-80l-512-512q-20.572-21.714-51.428-21.714t-51.428 21.714l-512 512q-35.428 33.142-16 80 19.428 44.572 67.428 44.572h292.572v512q0 29.714 21.714 51.428t51.428 21.714h292.572q29.714 0 51.428-21.714t21.714-51.428v-512h292.572q48 0 67.428-44.572zM1865.142 585.143q16 0 26.286-10.286t10.286-26.286v-658.286q0-16-10.286-26.286t-26.286-10.286h-1828.572q-16 0-26.286 10.286t-10.286 26.286v658.286q0 16 10.286 26.286t26.286 10.286h219.428q16 0 26.286-10.286t10.286-26.286v-402.286h1316.572v402.286q0 16 10.286 26.286t26.286 10.286h219.428z" />
<glyph unicode="&#xf023;" glyph-name="uniF023" horiz-adv-x="1316" d="M804.572 585.143q0 60.572-42.858 103.428t-103.428 42.858-103.428-42.858-42.858-103.428q0-42.286 21.714-76.572t58.286-53.714l-78.858-261.714q-5.714-17.142 5.714-32t29.714-14.858h219.428q18.286 0 29.714 14.858t5.714 32l-78.858 261.714q36.572 19.428 58.286 53.714t21.714 76.572zM365.714 877.715h585.142v219.428q0 121.142-85.714 206.858t-206.858 85.714-206.858-85.714-85.714-206.858v-219.428zM1316.572 768.001v-658.286q0-45.714-32-77.714t-77.714-32h-1097.142q-45.714 0-77.714 32t-32 77.714v658.286q0 45.714 32 77.714t77.714 32h36.572v219.428q0 210.286 150.858 361.142t361.142 150.858 361.142-150.858 150.858-361.142v-219.428h36.572q45.714 0 77.714-32t32-77.714z" />
<glyph unicode="&#xf024;" glyph-name="uniF024" d="M365.714 1462.857q0-82.286-73.142-125.714v-1446.858q0-14.858-10.858-25.714t-25.714-10.858h-73.142q-14.858 0-25.714 10.858t-10.858 25.714v1446.858q-73.142 43.428-73.142 125.714 0 60.572 42.858 103.428t103.428 42.858 103.428-42.858 42.858-103.428zM2048 1389.715v-872q0-28.572-14.286-44t-45.142-31.428q-245.714-132.572-421.714-132.572-69.714 0-141.142 25.142t-124 54.858-132 54.858-162.858 25.142q-219.428 0-530.286-166.858-19.428-10.286-37.714-10.286-29.714 0-51.428 21.714t-21.714 51.428v848q0 36.572 35.428 62.858 24 16 90.286 49.142 269.714 137.142 481.142 137.142 122.286 0 228.572-33.142t250.286-100.572q43.428-21.714 100.572-21.714 61.714 0 134.286 24t125.714 53.714 100.572 53.714 62.286 24q29.714 0 51.428-21.714t21.714-51.428z" />
<glyph unicode="&#xf026;" glyph-name="uniF026" horiz-adv-x="878" d="M877.714 1353.143v-1243.428q0-29.714-21.714-51.428t-51.428-21.714-51.428 21.714l-380.572 380.572h-299.428q-29.714 0-51.428 21.714t-21.714 51.428v438.858q0 29.714 21.714 51.428t51.428 21.714h299.428l380.572 380.572q21.714 21.714 51.428 21.714t51.428-21.714 21.714-51.428z" />
<glyph unicode="&#xf028;" glyph-name="uniF028" horiz-adv-x="1902" d="M877.714 1353.143v-1243.428q0-29.714-21.714-51.428t-51.428-21.714-51.428 21.714l-380.572 380.572h-299.428q-29.714 0-51.428 21.714t-21.714 51.428v438.858q0 29.714 21.714 51.428t51.428 21.714h299.428l380.572 380.572q21.714 21.714 51.428 21.714t51.428-21.714 21.714-51.428zM1316.572 731.429q0-86.858-48.572-161.714t-128.572-106.858q-11.428-5.714-28.572-5.714-29.714 0-51.428 21.142t-21.714 52q0 24 13.714 40.572t33.142 28.572 38.858 26.286 33.142 40.572 13.714 65.142-13.714 65.142-33.142 40.572-38.858 26.286-33.142 28.572-13.714 40.572q0 30.858 21.714 52t51.428 21.142q17.142 0 28.572-5.714 80-30.858 128.572-106.286t48.572-162.286zM1609.142 731.429q0-174.858-97.142-322.858t-257.142-215.428q-14.858-5.714-28.572-5.714-30.858 0-52.572 21.714t-21.714 51.428q0 44.572 44.572 67.428 64 33.142 86.858 50.286 84.572 61.714 132 154.858t47.428 198.286-47.428 198.286-132 154.858q-22.858 17.142-86.858 50.286-44.572 22.858-44.572 67.428 0 29.714 21.714 51.428t51.428 21.714q14.858 0 29.714-5.714 160-67.428 257.142-215.428t97.142-322.858zM1901.714 731.429q0-262.858-145.142-482.858t-386.286-324q-14.858-5.714-29.714-5.714-29.714 0-51.428 21.714t-21.714 51.428q0 41.142 44.572 67.428 8 4.572 25.714 12t25.714 12q52.572 28.572 93.714 58.286 140.572 104 219.428 259.428t78.858 330.286-78.858 330.286-219.428 259.428q-41.142 29.714-93.714 58.286-8 4.572-25.714 12t-25.714 12q-44.572 26.286-44.572 67.428 0 29.714 21.714 51.428t51.428 21.714q14.858 0 29.714-5.714 241.142-104 386.286-324t145.142-482.858z" />
<glyph unicode="&#xf04b;" glyph-name="uniF04B" horiz-adv-x="1610" d="M1581.714 696.001l-1517.714-843.428q-26.286-14.858-45.142-3.428t-18.858 41.142v1682.286q0 29.714 18.858 41.142t45.142-3.428l1517.714-843.428q26.286-14.858 26.286-35.428t-26.286-35.428z" />
<glyph unicode="&#xf04c;" glyph-name="uniF04C" horiz-adv-x="1756" d="M1755.428 1536.001v-1609.142q0-29.714-21.714-51.428t-51.428-21.714h-585.142q-29.714 0-51.428 21.714t-21.714 51.428v1609.142q0 29.714 21.714 51.428t51.428 21.714h585.142q29.714 0 51.428-21.714t21.714-51.428zM731.428 1536.001v-1609.142q0-29.714-21.714-51.428t-51.428-21.714h-585.142q-29.714 0-51.428 21.714t-21.714 51.428v1609.142q0 29.714 21.714 51.428t51.428 21.714h585.142q29.714 0 51.428-21.714t21.714-51.428z" />
<glyph unicode="&#xf053;" glyph-name="uniF053" horiz-adv-x="1316" d="M848-42.285l-745.142 744q-42.286 42.286-42.286 103.428t42.286 103.428l745.142 744q42.286 42.286 103.428 42.286t103.428-42.286l85.714-85.714q42.286-42.286 42.286-103.428t-42.286-103.428l-555.428-555.428 555.428-554.286q42.286-43.428 42.286-104t-42.286-102.858l-85.714-85.714q-42.286-42.286-103.428-42.286t-103.428 42.286z" />
<glyph unicode="&#xf057;" glyph-name="uniF057" horiz-adv-x="1756" d="M1313.142 473.143q0 29.714-21.714 51.428l-206.858 206.858 206.858 206.858q21.714 21.714 21.714 51.428 0 30.858-21.714 52.572l-102.858 102.858q-21.714 21.714-52.572 21.714-29.714 0-51.428-21.714l-206.858-206.858-206.858 206.858q-21.714 21.714-51.428 21.714-30.858 0-52.572-21.714l-102.858-102.858q-21.714-21.714-21.714-52.572 0-29.714 21.714-51.428l206.858-206.858-206.858-206.858q-21.714-21.714-21.714-51.428 0-30.858 21.714-52.572l102.858-102.858q21.714-21.714 52.572-21.714 29.714 0 51.428 21.714l206.858 206.858 206.858-206.858q21.714-21.714 51.428-21.714 30.858 0 52.572 21.714l102.858 102.858q21.714 21.714 21.714 52.572zM1755.428 731.429q0-238.858-117.714-440.572t-319.428-319.428-440.572-117.714-440.572 117.714-319.428 319.428-117.714 440.572 117.714 440.572 319.428 319.428 440.572 117.714 440.572-117.714 319.428-319.428 117.714-440.572z" />
<glyph unicode="&#xf058;" glyph-name="uniF058" horiz-adv-x="1756" d="M1467.428 916.571q0 32-20.572 52.572l-104 102.858q-21.714 21.714-51.428 21.714t-51.428-21.714l-466.286-465.142-258.286 258.286q-21.714 21.714-51.428 21.714t-51.428-21.714l-104-102.858q-20.572-20.572-20.572-52.572 0-30.858 20.572-51.428l413.714-413.714q21.714-21.714 51.428-21.714 30.858 0 52.572 21.714l620.572 620.572q20.572 20.572 20.572 51.428zM1755.428 731.429q0-238.858-117.714-440.572t-319.428-319.428-440.572-117.714-440.572 117.714-319.428 319.428-117.714 440.572 117.714 440.572 319.428 319.428 440.572 117.714 440.572-117.714 319.428-319.428 117.714-440.572z" />
<glyph unicode="&#xf059;" glyph-name="uniF059" horiz-adv-x="1756" d="M1024 182.857v219.428q0 14.858-10.858 25.714t-25.714 10.858h-219.428q-14.858 0-25.714-10.858t-10.858-25.714v-219.428q0-14.858 10.858-25.714t25.714-10.858h219.428q14.858 0 25.714 10.858t10.858 25.714zM1316.572 950.857q0 110.858-66.858 196.572t-165.142 127.428-206.858 41.714-206.858-41.714-165.142-127.428-66.858-196.572v-27.428t1.142-13.142 3.428-13.142 6.286-9.142 10.286-8 15.428-2.286h219.428q16 0 26.286 10.286t10.286 26.286q0 13.714 12.572 30.858 21.714 35.428 57.714 57.142t76 21.714q44.572 0 94.858-24.572t50.286-65.714q0-37.714-30.286-66.286t-72.572-50.286-85.142-47.428-73.142-72.572-30.286-112v-27.428t1.142-13.142 3.428-13.142 6.286-9.142 10.286-8 15.428-2.286h219.428q19.428 0 27.428 12t9.142 28 15.428 37.714 42.858 36.572q68.572 37.714 80 44.572 70.858 50.286 112.572 123.428t41.714 156.572zM1755.428 731.429q0-238.858-117.714-440.572t-319.428-319.428-440.572-117.714-440.572 117.714-319.428 319.428-117.714 440.572 117.714 440.572 319.428 319.428 440.572 117.714 440.572-117.714 319.428-319.428 117.714-440.572z" />
<glyph unicode="&#xf05a;" glyph-name="uniF05A" horiz-adv-x="1756" d="M1170.286 182.857v73.142q0 16-10.286 26.286t-26.286 10.286h-109.714v548.572q0 16-10.286 26.286t-26.286 10.286h-365.714q-16 0-26.286-10.286t-10.286-26.286v-73.142q0-16 10.286-26.286t26.286-10.286h109.714v-438.858h-109.714q-16 0-26.286-10.286t-10.286-26.286v-73.142q0-16 10.286-26.286t26.286-10.286h512q16 0 26.286 10.286t10.286 26.286zM1024 1060.571v219.428q0 16-10.286 26.286t-26.286 10.286h-219.428q-16 0-26.286-10.286t-10.286-26.286v-219.428q0-16 10.286-26.286t26.286-10.286h219.428q16 0 26.286 10.286t10.286 26.286zM1755.428 731.429q0-238.858-117.714-440.572t-319.428-319.428-440.572-117.714-440.572 117.714-319.428 319.428-117.714 440.572 117.714 440.572 319.428 319.428 440.572 117.714 440.572-117.714 319.428-319.428 117.714-440.572z" />
<glyph unicode="&#xf062;" glyph-name="uniF062" horiz-adv-x="1902" d="M1841.142 645.715q0-58.286-42.286-102.858l-85.714-85.714q-43.428-43.428-104-43.428-61.714 0-102.858 43.428l-336 334.858v-804.572q0-59.428-42.858-96.572t-103.428-37.142h-146.286q-60.572 0-103.428 37.142t-42.858 96.572v804.572l-336-334.858q-41.142-43.428-102.858-43.428t-102.858 43.428l-85.714 85.714q-43.428 43.428-43.428 102.858 0 60.572 43.428 104l744 744q40 42.286 102.858 42.286 61.714 0 104-42.286l744-744q42.286-44.572 42.286-104z" />
<glyph unicode="&#xf071;" glyph-name="uniF071" d="M1170.286 184.001v217.142q0 16-10.858 26.858t-25.714 10.858h-219.428q-14.858 0-25.714-10.858t-10.858-26.858v-217.142q0-16 10.858-26.858t25.714-10.858h219.428q14.858 0 25.714 10.858t10.858 26.858zM1168 611.429l20.572 524.572q0 13.714-11.428 21.714-14.858 12.572-27.428 12.572h-251.428q-12.572 0-27.428-12.572-11.428-8-11.428-24l19.428-522.286q0-11.428 11.428-18.858t27.428-7.428h211.428q16 0 26.858 7.428t12 18.858zM1152 1678.857l877.714-1609.142q40-72-2.286-144-19.428-33.142-53.142-52.572t-72.572-19.428h-1755.428q-38.858 0-72.572 19.428t-53.142 52.572q-42.286 72-2.286 144l877.714 1609.142q19.428 35.428 53.714 56t74.286 20.572 74.286-20.572 53.714-56z" />
<glyph unicode="&#xf073;" glyph-name="uniF073" horiz-adv-x="1902" d="M146.286-146.285h329.142v329.142h-329.142v-329.142zM548.572-146.285h365.714v329.142h-365.714v-329.142zM146.286 256.001h329.142v365.714h-329.142v-365.714zM548.572 256.001h365.714v365.714h-365.714v-365.714zM146.286 694.857h329.142v329.142h-329.142v-329.142zM987.428-146.285h365.714v329.142h-365.714v-329.142zM548.572 694.857h365.714v329.142h-365.714v-329.142zM1426.286-146.285h329.142v329.142h-329.142v-329.142zM987.428 256.001h365.714v365.714h-365.714v-365.714zM585.142 1243.429v329.142q0 14.858-10.858 25.714t-25.714 10.858h-73.142q-14.858 0-25.714-10.858t-10.858-25.714v-329.142q0-14.858 10.858-25.714t25.714-10.858h73.142q14.858 0 25.714 10.858t10.858 25.714zM1426.286 256.001h329.142v365.714h-329.142v-365.714zM987.428 694.857h365.714v329.142h-365.714v-329.142zM1426.286 694.857h329.142v329.142h-329.142v-329.142zM1462.858 1243.429v329.142q0 14.858-10.858 25.714t-25.714 10.858h-73.142q-14.858 0-25.714-10.858t-10.858-25.714v-329.142q0-14.858 10.858-25.714t25.714-10.858h73.142q14.858 0 25.714 10.858t10.858 25.714zM1901.714 1316.571v-1462.858q0-59.428-43.428-102.858t-102.858-43.428h-1609.142q-59.428 0-102.858 43.428t-43.428 102.858v1462.858q0 59.428 43.428 102.858t102.858 43.428h146.286v109.714q0 75.428 53.714 129.142t129.142 53.714h73.142q75.428 0 129.142-53.714t53.714-129.142v-109.714h438.858v109.714q0 75.428 53.714 129.142t129.142 53.714h73.142q75.428 0 129.142-53.714t53.714-129.142v-109.714h146.286q59.428 0 102.858-43.428t43.428-102.858z" />
<glyph unicode="&#xf080;" glyph-name="uniF080" horiz-adv-x="2194" d="M585.142 585.143v-438.858h-292.572v438.858h292.572zM1024 1170.287v-1024h-292.572v1024h292.572zM1462.858 877.715v-731.428h-292.572v731.428h292.572zM1901.714 1316.571v-1170.286h-292.572v1170.286h292.572zM2048 36.571v1389.714q0 14.858-10.858 25.714t-25.714 10.858h-1828.572q-14.858 0-25.714-10.858t-10.858-25.714v-1389.714q0-14.858 10.858-25.714t25.714-10.858h1828.572q14.858 0 25.714 10.858t10.858 25.714zM2194.286 1426.287v-1389.714q0-75.428-53.714-129.142t-129.142-53.714h-1828.572q-75.428 0-129.142 53.714t-53.714 129.142v1389.714q0 75.428 53.714 129.142t129.142 53.714h1828.572q75.428 0 129.142-53.714t53.714-129.142z" />
<glyph unicode="&#xf0a2;" glyph-name="uniF0A2" horiz-adv-x="1902" d="M969.142-182.857q0 18.286-18.286 18.286-67.428 0-116 48.572t-48.572 116q0 18.286-18.286 18.286t-18.286-18.286q0-83.428 58.858-142.286t142.286-58.858q18.286 0 18.286 18.286zM209.142 146.287h1483.428q-187.428 206.858-281.714 470.286t-94.286 553.714q0 292.572-365.714 292.572t-365.714-292.572q0-290.286-94.286-553.714t-281.714-470.286zM1901.714 146.287q0-59.428-43.428-102.858t-102.858-43.428h-512q0-121.142-85.714-206.858t-206.858-85.714-206.858 85.714-85.714 206.858h-512q-59.428 0-102.858 43.428t-43.428 102.858q217.142 184 328 454.286t110.858 569.714q0 188.572 109.714 299.428t301.714 133.714q-9.142 20.572-9.142 42.286 0 45.714 32 77.714t77.714 32 77.714-32 32-77.714q0-21.714-9.142-42.286 192-22.858 301.714-133.714t109.714-299.428q0-299.428 110.858-569.714t328-454.286z" />
<glyph unicode="&#xf0a9;" glyph-name="uniF0A9" horiz-adv-x="1756" d="M1468.572 731.429q0 30.858-20.572 51.428l-517.714 517.714q-20.572 20.572-51.428 20.572t-51.428-20.572l-104-104q-20.572-20.572-20.572-51.428t20.572-51.428l216-216h-573.714q-29.714 0-51.428-21.714t-21.714-51.428v-146.286q0-29.714 21.714-51.428t51.428-21.714h573.714l-216-216q-21.714-21.714-21.714-51.428t21.714-51.428l104-104q20.572-20.572 51.428-20.572t51.428 20.572l517.714 517.714q20.572 20.572 20.572 51.428zM1755.428 731.429q0-238.858-117.714-440.572t-319.428-319.428-440.572-117.714-440.572 117.714-319.428 319.428-117.714 440.572 117.714 440.572 319.428 319.428 440.572 117.714 440.572-117.714 319.428-319.428 117.714-440.572z" />
<glyph unicode="&#xf0ad;" glyph-name="uniF0AD" horiz-adv-x="1902" d="M438.858 73.143q0 29.714-21.714 51.428t-51.428 21.714-51.428-21.714-21.714-51.428 21.714-51.428 51.428-21.714 51.428 21.714 21.714 51.428zM1174.858 553.143l-779.428-779.428q-42.286-42.286-102.858-42.286-59.428 0-104 42.286l-121.142 123.428q-43.428 41.142-43.428 102.858 0 60.572 43.428 104l778.286 778.286q44.572-112 130.858-198.286t198.286-130.858zM1899.428 1050.287q0-44.572-26.286-121.142-53.714-153.142-188-248.572t-295.428-95.428q-211.428 0-361.714 150.286t-150.286 361.714 150.286 361.714 361.714 150.286q66.286 0 138.858-18.858t122.858-53.142q18.286-12.572 18.286-32t-18.286-32l-334.858-193.142v-256l220.572-122.286q5.714 3.428 90.286 55.428t154.858 92.572 80.572 40.572q17.142 0 26.858-11.428t9.714-28.572z" />
<glyph unicode="&#xf0c0;" glyph-name="uniF0C0" horiz-adv-x="2194" d="M677.714 731.429q-185.142-5.714-302.858-146.286h-153.142q-93.714 0-157.714 46.286t-64 135.428q0 403.428 141.714 403.428 6.858 0 49.714-24t111.428-48.572 136-24.572q76.572 0 152 26.286-5.714-42.286-5.714-75.428 0-158.858 92.572-292.572zM1901.714 3.429q0-137.142-83.428-216.572t-221.714-79.428h-998.858q-138.286 0-221.714 79.428t-83.428 216.572q0 60.572 4 118.286t16 124.572 30.286 124 49.142 111.428 70.858 92.572 97.714 61.142 127.428 22.858q11.428 0 49.142-24.572t83.428-54.858 122.286-54.858 154.286-24.572 154.286 24.572 122.286 54.858 83.428 54.858 49.142 24.572q69.714 0 127.428-22.858t97.714-61.142 70.858-92.572 49.142-111.428 30.286-124 16-124.572 4-118.286zM731.428 1462.857q0-121.142-85.714-206.858t-206.858-85.714-206.858 85.714-85.714 206.858 85.714 206.858 206.858 85.714 206.858-85.714 85.714-206.858zM1536 1024.001q0-181.714-128.572-310.286t-310.286-128.572-310.286 128.572-128.572 310.286 128.572 310.286 310.286 128.572 310.286-128.572 128.572-310.286zM2194.286 766.857q0-89.142-64-135.428t-157.714-46.286h-153.142q-117.714 140.572-302.858 146.286 92.572 133.714 92.572 292.572 0 33.142-5.714 75.428 75.428-26.286 152-26.286 67.428 0 136 24.572t111.428 48.572 49.714 24q141.714 0 141.714-403.428zM2048 1462.857q0-121.142-85.714-206.858t-206.858-85.714-206.858 85.714-85.714 206.858 85.714 206.858 206.858 85.714 206.858-85.714 85.714-206.858z" />
<glyph unicode="&#xf0c5;" glyph-name="copy" d="M1938.286 1316.571q45.714 0 77.714-32t32-77.714v-1389.714q0-45.714-32-77.714t-77.714-32h-1097.142q-45.714 0-77.714 32t-32 77.714v329.142h-621.714q-45.714 0-77.714 32t-32 77.714v768q0 45.714 22.858 100.572t54.858 86.858l466.286 466.286q32 32 86.858 54.858t100.572 22.858h475.428q45.714 0 77.714-32t32-77.714v-374.858q77.714 45.714 146.286 45.714h475.428zM1316.572 1073.143l-341.714-341.714h341.714v341.714zM585.142 1512.001l-341.714-341.714h341.714v341.714zM809.142 772.571l361.142 361.142v475.428h-438.858v-475.428q0-45.714-32-77.714t-77.714-32h-475.428v-731.428h585.142v292.572q0 45.714 22.858 100.572t54.858 86.858zM1901.714-146.285v1316.572h-438.858v-475.428q0-45.714-32-77.714t-77.714-32h-475.428v-731.428h1024z" />
<glyph unicode="&#xf0c8;" glyph-name="cols-1" d="M1755.428 1280.001v-1097.142q0-136-96.572-232.572t-232.572-96.572h-1097.142q-136 0-232.572 96.572t-96.572 232.572v1097.142q0 136 96.572 232.572t232.572 96.572h1097.142q136 0 232.572-96.572t96.572-232.572z" />
<glyph unicode="&#xf0da;" glyph-name="uniF0DA" horiz-adv-x="732" d="M658.286 731.429q0-29.714-21.714-51.428l-512-512q-21.714-21.714-51.428-21.714t-51.428 21.714-21.714 51.428v1024q0 29.714 21.714 51.428t51.428 21.714 51.428-21.714l512-512q21.714-21.714 21.714-51.428z" />
<glyph unicode="&#xf0e4;" glyph-name="uniF0E4" d="M438.858 438.857q0 60.572-42.858 103.428t-103.428 42.858-103.428-42.858-42.858-103.428 42.858-103.428 103.428-42.858 103.428 42.858 42.858 103.428zM658.286 950.857q0 60.572-42.858 103.428t-103.428 42.858-103.428-42.858-42.858-103.428 42.858-103.428 103.428-42.858 103.428 42.858 42.858 103.428zM1147.428 401.143l115.428 436.572q6.858 29.714-8.572 55.428t-44 33.714-54.858-7.428-34.286-45.142l-115.428-436.572q-68.572-5.714-122.286-49.714t-72-112.572q-22.858-88 22.858-166.858t133.714-101.714 166.858 22.858 101.714 133.714q18.286 68.572-6.858 133.714t-82.286 104zM1901.714 438.857q0 60.572-42.858 103.428t-103.428 42.858-103.428-42.858-42.858-103.428 42.858-103.428 103.428-42.858 103.428 42.858 42.858 103.428zM1170.286 1170.287q0 60.572-42.858 103.428t-103.428 42.858-103.428-42.858-42.858-103.428 42.858-103.428 103.428-42.858 103.428 42.858 42.858 103.428zM1682.286 950.857q0 60.572-42.858 103.428t-103.428 42.858-103.428-42.858-42.858-103.428 42.858-103.428 103.428-42.858 103.428 42.858 42.858 103.428zM2048 438.857q0-298.286-161.142-552-21.714-33.142-61.714-33.142h-1602.286q-40 0-61.714 33.142-161.142 252.572-161.142 552 0 208 81.142 397.714t218.286 326.858 326.858 218.286 397.714 81.142 397.714-81.142 326.858-218.286 218.286-326.858 81.142-397.714z" />
<glyph unicode="&#xf0e8;" glyph-name="uniF0E8" d="M2048 329.143v-365.714q0-45.714-32-77.714t-77.714-32h-365.714q-45.714 0-77.714 32t-32 77.714v365.714q0 45.714 32 77.714t77.714 32h109.714v219.428h-585.142v-219.428h109.714q45.714 0 77.714-32t32-77.714v-365.714q0-45.714-32-77.714t-77.714-32h-365.714q-45.714 0-77.714 32t-32 77.714v365.714q0 45.714 32 77.714t77.714 32h109.714v219.428h-585.142v-219.428h109.714q45.714 0 77.714-32t32-77.714v-365.714q0-45.714-32-77.714t-77.714-32h-365.714q-45.714 0-77.714 32t-32 77.714v365.714q0 45.714 32 77.714t77.714 32h109.714v219.428q0 59.428 43.428 102.858t102.858 43.428h585.142v219.428h-109.714q-45.714 0-77.714 32t-32 77.714v365.714q0 45.714 32 77.714t77.714 32h365.714q45.714 0 77.714-32t32-77.714v-365.714q0-45.714-32-77.714t-77.714-32h-109.714v-219.428h585.142q59.428 0 102.858-43.428t43.428-102.858v-219.428h109.714q45.714 0 77.714-32t32-77.714z" />
<glyph unicode="&#xf0eb;" glyph-name="uniF0EB" horiz-adv-x="1170" d="M841.142 1097.143q0-14.858-10.858-25.714t-25.714-10.858-25.714 10.858-10.858 25.714q0 52.572-61.714 81.142t-121.142 28.572q-14.858 0-25.714 10.858t-10.858 25.714 10.858 25.714 25.714 10.858q57.142 0 113.714-18.286t99.428-61.714 42.858-102.858zM1024 1097.143q0 82.286-39.428 153.142t-102.858 116-140.572 70.858-156 25.714-156-25.714-140.572-70.858-102.858-116-39.428-153.142q0-115.428 77.714-205.714 11.428-12.572 34.858-37.714t34.858-37.714q146.286-174.858 161.142-340.572h260.572q14.858 165.714 161.142 340.572 11.428 12.572 34.858 37.714t34.858 37.714q77.714 90.286 77.714 205.714zM1170.286 1097.143q0-177.142-117.714-306.286-51.428-56-85.142-99.428t-68-109.142-38.858-122.858q53.714-32 53.714-93.714 0-42.286-28.572-73.142 28.572-30.858 28.572-73.142 0-59.428-51.428-92.572 14.858-26.286 14.858-53.714 0-52.572-36-81.142t-88.572-28.572q-22.858-50.286-68.572-80t-99.428-29.714-99.428 29.714-68.572 80q-52.572 0-88.572 28.572t-36 81.142q0 27.428 14.858 53.714-51.428 33.142-51.428 92.572 0 42.286 28.572 73.142-28.572 30.858-28.572 73.142 0 61.714 53.714 93.714-4.572 57.142-38.858 122.858t-68 109.142-85.142 99.428q-117.714 129.142-117.714 306.286 0 113.142 50.858 210.858t133.714 162.286 187.428 101.714 213.142 37.142 213.142-37.142 187.428-101.714 133.714-162.286 50.858-210.858z" />
<glyph unicode="&#xf0ee;" glyph-name="uniF0EE" horiz-adv-x="2194" d="M1462.858 768.001q0 16-10.286 26.286l-402.286 402.286q-10.286 10.286-26.286 10.286t-26.286-10.286l-401.142-401.142q-11.428-13.714-11.428-27.428 0-16 10.286-26.286t26.286-10.286h256v-402.286q0-14.858 10.858-25.714t25.714-10.858h219.428q14.858 0 25.714 10.858t10.858 25.714v402.286h256q14.858 0 25.714 10.858t10.858 25.714zM2194.286 438.857q0-181.714-128.572-310.286t-310.286-128.572h-1243.428q-211.428 0-361.714 150.286t-150.286 361.714q0 148.572 80 274.286t214.858 188.572q-2.286 34.286-2.286 49.142 0 242.286 171.428 413.714t413.714 171.428q178.286 0 326.286-99.428t215.428-264q81.142 70.858 189.714 70.858 121.142 0 206.858-85.714t85.714-206.858q0-86.858-46.858-157.714 148.572-35.428 244-154.858t95.428-272.572z" />
<glyph unicode="&#xf0f3;" glyph-name="uniF0F3" horiz-adv-x="1902" d="M969.142-182.857q0 18.286-18.286 18.286-67.428 0-116 48.572t-48.572 116q0 18.286-18.286 18.286t-18.286-18.286q0-83.428 58.858-142.286t142.286-58.858q18.286 0 18.286 18.286zM1901.714 146.287q0-59.428-43.428-102.858t-102.858-43.428h-512q0-121.142-85.714-206.858t-206.858-85.714-206.858 85.714-85.714 206.858h-512q-59.428 0-102.858 43.428t-43.428 102.858q217.142 184 328 454.286t110.858 569.714q0 188.572 109.714 299.428t301.714 133.714q-9.142 20.572-9.142 42.286 0 45.714 32 77.714t77.714 32 77.714-32 32-77.714q0-21.714-9.142-42.286 192-22.858 301.714-133.714t109.714-299.428q0-299.428 110.858-569.714t328-454.286z" />
<glyph unicode="&#xf0f6;" glyph-name="uniF0F6" horiz-adv-x="1462" d="M1170.286 402.287v-73.142q0-16-10.286-26.286t-26.286-10.286h-804.572q-16 0-26.286 10.286t-10.286 26.286v73.142q0 16 10.286 26.286t26.286 10.286h804.572q16 0 26.286-10.286t10.286-26.286zM1170.286 694.857v-73.142q0-16-10.286-26.286t-26.286-10.286h-804.572q-16 0-26.286 10.286t-10.286 26.286v73.142q0 16 10.286 26.286t26.286 10.286h804.572q16 0 26.286-10.286t10.286-26.286zM146.286 0.001h1170.286v877.714h-475.428q-45.714 0-77.714 32t-32 77.714v475.428h-585.142v-1462.858zM877.714 1024.001h341.714l-341.714 341.714v-341.714zM1462.858 877.715v-914.286q0-45.714-32-77.714t-77.714-32h-1243.428q-45.714 0-77.714 32t-32 77.714v1536q0 45.714 32 77.714t77.714 32h621.714q45.714 0 100.572-22.858t86.858-54.858l466.286-466.286q32-32 54.858-86.858t22.858-100.572z" />
<glyph unicode="&#xf0fe;" glyph-name="uniF0FE" horiz-adv-x="1756" d="M1462.858 658.287v146.286q0 29.714-21.714 51.428t-51.428 21.714h-365.714v365.714q0 29.714-21.714 51.428t-51.428 21.714h-146.286q-29.714 0-51.428-21.714t-21.714-51.428v-365.714h-365.714q-29.714 0-51.428-21.714t-21.714-51.428v-146.286q0-29.714 21.714-51.428t51.428-21.714h365.714v-365.714q0-29.714 21.714-51.428t51.428-21.714h146.286q29.714 0 51.428 21.714t21.714 51.428v365.714h365.714q29.714 0 51.428 21.714t21.714 51.428zM1755.428 1280.001v-1097.142q0-136-96.572-232.572t-232.572-96.572h-1097.142q-136 0-232.572 96.572t-96.572 232.572v1097.142q0 136 96.572 232.572t232.572 96.572h1097.142q136 0 232.572-96.572t96.572-232.572z" />
<glyph unicode="" glyph-name="uniF0FE" horiz-adv-x="1756" d="M1462.858 658.287v146.286q0 29.714-21.714 51.428t-51.428 21.714h-365.714v365.714q0 29.714-21.714 51.428t-51.428 21.714h-146.286q-29.714 0-51.428-21.714t-21.714-51.428v-365.714h-365.714q-29.714 0-51.428-21.714t-21.714-51.428v-146.286q0-29.714 21.714-51.428t51.428-21.714h365.714v-365.714q0-29.714 21.714-51.428t51.428-21.714h146.286q29.714 0 51.428 21.714t21.714 51.428v365.714h365.714q29.714 0 51.428 21.714t21.714 51.428zM1755.428 1280.001v-1097.142q0-136-96.572-232.572t-232.572-96.572h-1097.142q-136 0-232.572 96.572t-96.572 232.572v1097.142q0 136 96.572 232.572t232.572 96.572h1097.142q136 0 232.572-96.572t96.572-232.572z" />
<glyph unicode="up" glyph-name="arrow-up" d="M1024 1728l-960-960h576v-1024h768v1024h576z" />
<glyph unicode="right3" glyph-name="arrow-right" d="M1984 768l-960 960v-576h-1024v-768h1024v-576z" />
<glyph unicode="repeat2" glyph-name="loop2" d="M1779.36 1459.36c-187.216 204.432-456.308 332.64-755.36 332.64-565.54 0-1024-458.46-1024-1024h192c0 459.5 372.5 832 832 832 246.040 0 467.084-106.836 619.392-276.612l-299.392-299.388h704v704l-268.64-268.64zM1856 768c0-459.5-372.5-832-832-832-246.040 0-467.084 106.836-619.388 276.612l299.388 299.388h-704v-704l268.64 268.64c187.216-204.432 456.308-332.64 755.36-332.64 565.54 0 1024 458.46 1024 1024h-192z" />
<glyph unicode="loop2" glyph-name="loop2" d="M1779.36 1459.36c-187.216 204.432-456.308 332.64-755.36 332.64-565.54 0-1024-458.46-1024-1024h192c0 459.5 372.5 832 832 832 246.040 0 467.084-106.836 619.392-276.612l-299.392-299.388h704v704l-268.64-268.64zM1856 768c0-459.5-372.5-832-832-832-246.040 0-467.084 106.836-619.388 276.612l299.388 299.388h-704v-704l268.64 268.64c187.216-204.432 456.308-332.64 755.36-332.64 565.54 0 1024 458.46 1024 1024h-192z" />
<glyph unicode="left3" glyph-name="arrow-left" d="M64 768l960-960v576h1024v768h-1024v576z" />
<glyph unicode="down" glyph-name="arrow-down" d="M1024-192l960 960h-576v1024h-768v-1024h-576z" />
<glyph unicode="arrow-up" glyph-name="arrow-up" d="M1024 1728l-960-960h576v-1024h768v1024h576z" />
<glyph unicode="arrow-right" glyph-name="arrow-right" d="M1984 768l-960 960v-576h-1024v-768h1024v-576z" />
<glyph unicode="arrow-left" glyph-name="arrow-left" d="M64 768l960-960v576h1024v768h-1024v576z" />
<glyph unicode="arrow-down" glyph-name="arrow-down" d="M1024-192l960 960h-576v1024h-768v-1024h-576z" />
</font>
</defs>
</svg>
